<?xml version="1.0" encoding="utf-8"?>
<!-- Generator: Adobe Illustrator 16.0.3, SVG Export Plug-In . SVG Version: 6.00 Build 0)  -->
<!DOCTYPE svg PUBLIC "-//W3C//DTD SVG 1.1//EN" "http://www.w3.org/Graphics/SVG/1.1/DTD/svg11.dtd">
<svg version="1.1" id="Слой_1" xmlns="http://www.w3.org/2000/svg" xmlns:xlink="http://www.w3.org/1999/xlink" x="0px" y="0px"
	 width="300.5px" height="304px" viewBox="345.75 2.5 300.5 304" enable-background="new 345.75 2.5 300.5 304"
	 xml:space="preserve">
<g id="Слой_1_1_">
	<circle fill="none" cx="497.334" cy="154.667" r="146.667"/>
</g>
<g id="Слой_2">
	<rect x="345" y="8" display="none" fill="#0000FF" width="301" height="290"/>
	<rect x="345" y="8" display="none" fill="#FFFF00" width="301" height="290"/>
	<path display="none" fill="#FFFFFF" d="M532,174v37h-23V111h23v39.747L565.922,111h25.9l-43.154,49.533l53.518,48.769
		c8.402-16.19,13.148-34.527,13.148-54.002c0-65.17-53.15-117.983-118.689-117.983c-26.012,0-49.645,8.347-69.645,22.46v115.19
		L473.805,111H491v100h-23v-62.493L421.725,211H404V81.698c-16,20.186-25.973,45.78-25.973,73.636c0,65.17,53.115,118,118.652,118
		c37.932,0,71.816-17.697,93.541-45.24L532,174z"/>
	<path fill="#FFFFFF" d="M496.668,14.667c-76.952,0-139.334,62.382-139.334,139.333s62.382,139.333,139.334,139.333
		C573.617,293.333,636,230.951,636,154S573.617,14.667,496.668,14.667z M496.668,273.333c-65.539,0-118.641-52.83-118.641-118
		c0-27.854,9.973-53.45,25.973-73.636V211h17.725L468,148.507V211h23V111h-17.195L427,174.967V59.776
		c20-14.113,43.633-22.442,69.645-22.442c65.539,0,118.68,52.83,118.68,118c0,19.475-4.742,37.845-13.145,54.035l-53.516-48.835
		L591.822,111h-25.9L532,150.747V111h-23v100h23v-37l58.213,54.093C568.49,255.636,534.598,273.333,496.668,273.333z"/>
	<line display="none" fill="none" stroke="#FF0000" stroke-miterlimit="10" x1="497.168" y1="154.583" x2="611" y2="241"/>
</g>
</svg>
