<?xml version="1.0" encoding="utf-8"?>
<!-- Generator: Adobe Illustrator 16.0.3, SVG Export Plug-In . SVG Version: 6.00 Build 0)  -->
<!DOCTYPE svg PUBLIC "-//W3C//DTD SVG 1.1//EN" "http://www.w3.org/Graphics/SVG/1.1/DTD/svg11.dtd">
<svg version="1.1" xmlns="http://www.w3.org/2000/svg" xmlns:xlink="http://www.w3.org/1999/xlink" x="0px" y="0px"
	 width="620.622px" height="621.333px" viewBox="0 0 620.622 621.333" enable-background="new 0 0 620.622 621.333"
	 xml:space="preserve">
<g id="Слой_2">
	<path display="none" fill="#FFFFFF" d="M77.622,400.667c0,0,39,150,238,150c157,0,199.25-172.667,199.25-172.667H467.62l101.335-81
		l-15-44L367.211,410.759l65.911,0.407c0,0-58.411,79.089-167.906,83.588C177.83,498.345,77.622,400.667,77.622,400.667z"/>
	<path fill="#012F46" stroke="#3C2415" stroke-miterlimit="10" d="M559.182,302.748l-94.562,75.586h47.252
		c0,0-42.25,172.667-199.25,172.667c-199,0-240.281-145.356-240.281-145.356S139.418,506.55,267.045,506.55
		c136.81,0,179.754-95.092,179.754-95.092l-82.589-0.365l181.902-153.669c-12.791-0.897-126.183-19.69-216.491,70.618
		c-9,9-26,11.75-36.375,2.125c-5.053-4.688-12.375-18.5-2.125-34C306.542,272.849,381.956,203,527.956,216
		c0.803,0.071,1.568,0.15,2.347,0.227c-4.931-11.095-10.593-22.652-17.056-34.284c-0.869-0.143-1.737-0.31-2.625-0.442
		c-99.405-14.827-174.251,4.805-257.667,84.167c-8.906,8.473-24.458,12.75-34.667,3c-6.605-6.309-14.792-21.125-2.167-35.125
		c71.215-78.971,128.224-105.519,274-88.042c0.011,0.001,0.021,0.004,0.03,0.005c-5.473-7.556-11.336-14.963-17.607-22.107
		c-43.868-15.186-187.766-53.489-287.256,84.269c-8.667,12-21.925,14.294-34.333,5.333c-9-6.5-14.422-24.277-4.667-37.333
		C252.935,32.93,400.915,73.471,456.968,107.069c-35.612-34.228-82.486-59.126-143.5-59.126
		c-146.496,0-265.254,118.759-265.254,265.255c0,146.494,118.758,265.251,265.254,265.251c123.896,0,227.954-84.947,257.109-199.776
		c11.546,0,43.379,0.16,43.379,0.16L559.182,302.748z"/>
</g>
<g id="Слой_3" display="none">
	<circle display="inline" fill="none" stroke="#3C2415" stroke-miterlimit="10" cx="311.245" cy="312.11" r="265.487"/>
	<path display="inline" fill="none" d="M50.551,312.072c0-184.745,176.271-263.56,253.39-263.56s251.695,72.034,251.695,254.237
		s-86.474,276.939-245.763,273.729C99.703,572.242,53.093,413.767,50.551,312.072z"/>
	<circle display="inline" fill="none" stroke="#3C2415" stroke-miterlimit="10" cx="310.271" cy="312.369" r="310.271"/>
	<circle display="inline" fill="none" stroke="#3C2415" stroke-miterlimit="10" cx="310" cy="312.369" r="25.5"/>
	<circle display="inline" fill="none" stroke="#3C2415" stroke-miterlimit="10" cx="234.54" cy="249.792" r="25.5"/>
	<circle display="inline" fill="none" stroke="#FFFFFF" stroke-miterlimit="10" cx="272.54" cy="280.792" r="25.5"/>
	<circle display="inline" fill="none" stroke="#FFFFFF" stroke-miterlimit="10" cx="200.761" cy="219.442" r="25.5"/>
	<circle display="inline" fill="none" stroke="#3C2415" stroke-miterlimit="10" cx="165.215" cy="192.123" r="25.5"/>
	
		<line display="inline" fill="none" stroke="#3C2415" stroke-miterlimit="10" x1="115.512" y1="149.495" x2="334.997" y2="333.292"/>
</g>
<g id="Слой_1" display="none">
	
		<image display="inline" overflow="visible" width="181" height="170" xlink:href="817DC035.jpg"  transform="matrix(3.0929 0 0 3.0929 55.8765 50.7432)">
	</image>
</g>
</svg>
